# xmcd
#
# Track frame offsets:
#	150
#	19046
#	40623
#	58263
#	72977
#	98705
#	118336
#	138450
#	168748
#	186640
#
# Disc length: 2761 seconds
# Revision: 0
# Processed by: cddbd v1.5.2PL0 Copyright (c) Steve Scherf et al.
# Submitted via: dBpowerAMP V12.0
#
DISCID=960ac70a
DTITLE=Rue Boogaloo - Rue Boogaloo
DYEAR=2012
DGENRE=Blues
TTITLE0=Know What To Do About You
TTITLE1=Everything's Picking Up
TTITLE2=Had A Good Run
TTITLE3=Talk About It
TTITLE4=Creeper
TTITLE5=My Baby's Sweet Like That
TTITLE6=They Tell Me
TTITLE7=In The Course Of A Night
TTITLE8=Rue Run
TTITLE9=Special Friend
EXTD=
EXTT0=
EXTT1=
EXTT2=
EXTT3=
EXTT4=
EXTT5=
EXTT6=
EXTT7=
EXTT8=
EXTT9=
PLAYORDER=
